<?xml version="1.0" ?><svg id="Layer_1" style="enable-background:new 0 0 65 65;" version="1.1" viewBox="0 0 65 65" xml:space="preserve" xmlns="http://www.w3.org/2000/svg" xmlns:xlink="http://www.w3.org/1999/xlink"><style type="text/css">
	.st0{fill:#FFD78A;}
	.st1{fill:#EFBB69;}
	.st2{fill:#DF9E47;}
	.st3{fill:#F25844;}
	.st4{fill:#D1412C;}
	.st5{fill:#D9D9D9;}
	.st6{fill:#C6C6C6;}
	.st7{fill:#FFFFFF;}
	.st8{fill:#4FBAF0;}
	.st9{fill:#6FA349;}
	.st10{fill:#E2DEDC;}
	.st11{opacity:0.15;fill:#231F20;}
	.st12{fill:#C6BEBA;}
	.st13{fill:#A99D97;}
	.st14{fill:#A08777;}
	.st15{fill:#826959;}
	.st16{fill:#B3B3B3;}
	.st17{fill:#C9B3A4;}
	.st18{fill:#ECECEC;}
	.st19{fill:#DCAE8C;}
	.st20{fill:#9D704E;}
	.st21{fill:#BD8F6D;}
	.st22{fill:#85CFF4;}
	.st23{fill:#9C7A60;}
	.st24{fill:#675148;}
	.st25{opacity:0.15;}
	.st26{opacity:0.5;fill:#85CFF4;}
	.st27{opacity:0.5;fill:#FFFFFF;}
	.st28{fill:#DFA113;}
	.st29{fill:#D28600;}
	.st30{fill:#E1D5CB;}
	.st31{fill:#98CF4E;}
	.st32{fill:#247DAD;}
	.st33{fill:#FCCDAB;}
	.st34{fill:#FAD638;}
	.st35{fill:#EDBB25;}
	.st36{fill:#E54C41;}
	.st37{fill:#F37057;}
	.st38{fill:none;stroke:#FFFFFF;stroke-linecap:round;stroke-linejoin:round;stroke-miterlimit:10;}
	.st39{fill:#E8C3AA;}
	.st40{fill:#231F20;}
	.st41{fill:#A89A92;}
	.st42{opacity:0.5;}
	.st43{fill:#F97A70;}
	.st44{fill:#31ACDD;}
	.st45{fill:#72594C;}
	.st46{fill:#FFE05C;}
	.st47{opacity:0.35;}
</style><g><polygon class="st14" points="53.6,15.4 32.6,27.5 6.5,12.5 8.5,11.3 9.8,10.5 27.5,0.4  "/><polygon class="st33" points="32.5,25.3 0.5,43.8 32.5,62.3 64.5,43.8  "/><polygon class="st19" points="0.5,43.8 0.5,46.2 32.5,64.6 32.5,62.3  "/><polygon class="st21" points="32.5,62.3 32.5,64.6 64.5,46.2 64.5,43.8  "/><polygon class="st18" points="6.5,14.8 6.5,42.7 32.6,57.8 32.6,29.9  "/><polygon class="st5" points="32.6,29.9 32.6,57.8 53.6,45.7 53.6,17.8  "/><polygon class="st17" points="53.6,17.8 32.6,29.9 6.5,14.8 27.5,2.7  "/><polygon class="st41" points="6.5,14.8 8.2,15.8 27.5,4.7 27.5,2.7  "/><polygon class="st15" points="27.5,2.7 27.5,4.7 51.9,18.8 53.6,17.8  "/><polygon class="st15" points="32.6,27.5 32.6,32.2 4.5,15.9 4.5,11.3  "/><polygon class="st41" points="55.7,14.2 55.7,18.9 32.6,32.2 32.6,27.5  "/><polygon class="st14" points="4.5,11.3 6.5,10.2 32.5,25.2 32.6,27.5  "/><polygon class="st14" points="32.5,25.2 53.5,13.1 55.6,14.2 32.6,27.5  "/><polygon class="st15" points="35.6,35 35.6,49.2 50.6,40.5 50.6,26.3  "/><polygon class="st8" points="36.6,47.4 49.6,39.9 49.6,28.1 36.6,35.6  "/><g class="st42"><g><polygon class="st7" points="49.1,40.2 47.5,41.1 37.2,35.2 38.8,34.4    "/></g><g><polygon class="st7" points="47,41.5 45.8,42.1 36.6,36.9 36.6,35.6 36.7,35.6    "/></g></g><polygon class="st11" points="47.8,16.4 32.5,25.2 32.5,25.2 32.5,25.2 32.5,25.2 32.5,25.2 12.2,13.5 13.6,12.7 32.5,23.6    46.4,15.6  "/><polygon class="st7" points="32.6,55.8 32.6,57.8 6.5,42.7 6.5,40.7  "/><polygon class="st6" points="53.7,43.7 53.7,45.7 32.6,57.8 32.6,55.8  "/><polygon class="st15" points="14.5,30.1 14.5,47.4 24.6,53.2 24.6,35.8  "/><g><polygon class="st8" points="19,33.8 15.5,31.8 15.5,47.9 19,50   "/><polygon class="st8" points="20,34.4 20,50.6 23.6,52.6 23.6,36.4   "/></g><g class="st42"><g><polygon class="st7" points="23.5,39.8 23.5,41.5 20,43.5 20,41.8    "/></g><g><polygon class="st7" points="23.5,42.2 23.5,43.5 20,45.5 20,44.2    "/></g></g><g class="st42"><g><polygon class="st7" points="19,36.6 19,38.4 15.5,40.4 15.5,38.6    "/></g><g><polygon class="st7" points="19,39 19,40.3 15.5,42.4 15.5,41.1    "/></g></g><g><rect class="st3" height="2.3" transform="matrix(0.4994 -0.8664 0.8664 0.4994 -15.0945 20.9034)" width="7" x="7" y="22.4"/><polygon class="st34" points="15.3,22.2 11.8,28.3 9.8,27.1 13.3,21   "/><polygon class="st3" points="17.3,23.4 13.8,29.4 11.8,28.3 15.3,22.2   "/><polygon class="st34" points="19.3,24.5 15.8,30.6 13.8,29.4 17.3,23.4   "/><polygon class="st3" points="21.3,25.7 17.8,31.8 15.8,30.6 19.3,24.5   "/><polygon class="st34" points="23.3,26.8 19.8,32.9 17.8,31.8 21.3,25.7   "/><polygon class="st3" points="25.3,28 21.8,34.1 19.8,32.9 23.3,26.8   "/><polygon class="st34" points="27.3,29.1 23.8,35.2 21.8,34.1 25.3,28   "/><polygon class="st3" points="29.3,30.3 25.8,36.4 23.8,35.2 27.3,29.1   "/><polygon class="st4" points="7.8,26 9.8,27.1 9.8,29.5 7.8,28.4   "/><polygon class="st35" points="9.8,27.1 11.8,28.3 11.8,30.7 9.8,29.5   "/><polygon class="st4" points="11.8,28.3 13.8,29.4 13.8,31.8 11.8,30.7   "/><polygon class="st35" points="13.8,29.4 15.8,30.6 15.8,33 13.8,31.8   "/><polygon class="st4" points="15.8,30.6 17.8,31.8 17.8,34.2 15.8,33   "/><polygon class="st35" points="17.8,31.8 19.8,32.9 19.8,35.3 17.8,34.2   "/><polygon class="st4" points="19.8,32.9 21.8,34.1 21.8,36.5 19.8,35.3   "/><polygon class="st35" points="21.8,34.1 23.8,35.2 23.8,37.6 21.8,36.5   "/><polygon class="st4" points="23.8,35.2 25.8,36.4 25.8,38.8 23.8,37.6   "/></g></g></svg>